<mxfile host="Electron" modified="2023-05-01T17:35:38.994Z" agent="Mozilla/5.0 (Windows NT 10.0; Win64; x64) AppleWebKit/537.36 (KHTML, like Gecko) draw.io/21.2.1 Chrome/112.0.5615.87 Electron/24.1.2 Safari/537.36" etag="F8kn-oxjysnW0XMphQ28" version="21.2.1" type="device">
  <diagram name="Page-1" id="dmON9AoMZai31LyQUv-f">
    <mxGraphModel dx="838" dy="994" grid="1" gridSize="10" guides="1" tooltips="1" connect="1" arrows="1" fold="1" page="1" pageScale="1" pageWidth="850" pageHeight="1100" math="0" shadow="0">
      <root>
        <mxCell id="0" />
        <mxCell id="1" parent="0" />
        <mxCell id="elwqRNV4fK5mfqGkRfo--3" style="edgeStyle=orthogonalEdgeStyle;rounded=0;orthogonalLoop=1;jettySize=auto;html=1;exitX=0.5;exitY=1;exitDx=0;exitDy=0;entryX=0.5;entryY=0;entryDx=0;entryDy=0;" edge="1" parent="1" source="elwqRNV4fK5mfqGkRfo--1" target="elwqRNV4fK5mfqGkRfo--2">
          <mxGeometry relative="1" as="geometry" />
        </mxCell>
        <mxCell id="elwqRNV4fK5mfqGkRfo--1" value="" style="ellipse;html=1;shape=endState;fillColor=#000000;strokeColor=#ff0000;" vertex="1" parent="1">
          <mxGeometry x="410" y="50" width="30" height="30" as="geometry" />
        </mxCell>
        <mxCell id="elwqRNV4fK5mfqGkRfo--5" style="edgeStyle=orthogonalEdgeStyle;rounded=0;orthogonalLoop=1;jettySize=auto;html=1;exitX=0.5;exitY=1;exitDx=0;exitDy=0;entryX=0.5;entryY=0;entryDx=0;entryDy=0;" edge="1" parent="1" source="elwqRNV4fK5mfqGkRfo--2" target="elwqRNV4fK5mfqGkRfo--4">
          <mxGeometry relative="1" as="geometry" />
        </mxCell>
        <mxCell id="elwqRNV4fK5mfqGkRfo--2" value="doctor login" style="rounded=0;whiteSpace=wrap;html=1;" vertex="1" parent="1">
          <mxGeometry x="365" y="130" width="120" height="40" as="geometry" />
        </mxCell>
        <mxCell id="elwqRNV4fK5mfqGkRfo--16" style="edgeStyle=orthogonalEdgeStyle;rounded=0;orthogonalLoop=1;jettySize=auto;html=1;exitX=0.5;exitY=1;exitDx=0;exitDy=0;entryX=0.5;entryY=0;entryDx=0;entryDy=0;" edge="1" parent="1" target="elwqRNV4fK5mfqGkRfo--10">
          <mxGeometry relative="1" as="geometry">
            <mxPoint x="425" y="429.9999999999998" as="sourcePoint" />
          </mxGeometry>
        </mxCell>
        <mxCell id="elwqRNV4fK5mfqGkRfo--17" style="edgeStyle=orthogonalEdgeStyle;rounded=0;orthogonalLoop=1;jettySize=auto;html=1;exitX=0.5;exitY=1;exitDx=0;exitDy=0;entryX=0.5;entryY=0;entryDx=0;entryDy=0;" edge="1" parent="1" target="elwqRNV4fK5mfqGkRfo--11">
          <mxGeometry relative="1" as="geometry">
            <mxPoint x="425" y="429.9999999999998" as="sourcePoint" />
          </mxGeometry>
        </mxCell>
        <mxCell id="elwqRNV4fK5mfqGkRfo--19" style="edgeStyle=orthogonalEdgeStyle;rounded=0;orthogonalLoop=1;jettySize=auto;html=1;exitX=0.5;exitY=1;exitDx=0;exitDy=0;" edge="1" parent="1" target="elwqRNV4fK5mfqGkRfo--13">
          <mxGeometry relative="1" as="geometry">
            <mxPoint x="425" y="429.9999999999998" as="sourcePoint" />
          </mxGeometry>
        </mxCell>
        <mxCell id="elwqRNV4fK5mfqGkRfo--28" value="" style="edgeStyle=orthogonalEdgeStyle;rounded=0;orthogonalLoop=1;jettySize=auto;html=1;" edge="1" parent="1" source="elwqRNV4fK5mfqGkRfo--4">
          <mxGeometry relative="1" as="geometry">
            <mxPoint x="425" y="430" as="targetPoint" />
          </mxGeometry>
        </mxCell>
        <mxCell id="elwqRNV4fK5mfqGkRfo--4" value="Authentication" style="rhombus;whiteSpace=wrap;html=1;" vertex="1" parent="1">
          <mxGeometry x="385" y="230" width="80" height="80" as="geometry" />
        </mxCell>
        <mxCell id="elwqRNV4fK5mfqGkRfo--8" value="" style="endArrow=classic;html=1;rounded=0;exitX=1;exitY=0.5;exitDx=0;exitDy=0;entryX=1;entryY=0.5;entryDx=0;entryDy=0;" edge="1" parent="1" source="elwqRNV4fK5mfqGkRfo--4" target="elwqRNV4fK5mfqGkRfo--2">
          <mxGeometry relative="1" as="geometry">
            <mxPoint x="370" y="490" as="sourcePoint" />
            <mxPoint x="500" y="200" as="targetPoint" />
            <Array as="points">
              <mxPoint x="520" y="270" />
              <mxPoint x="520" y="150" />
            </Array>
          </mxGeometry>
        </mxCell>
        <mxCell id="elwqRNV4fK5mfqGkRfo--9" value="Invalid" style="edgeLabel;resizable=0;html=1;align=center;verticalAlign=middle;" connectable="0" vertex="1" parent="elwqRNV4fK5mfqGkRfo--8">
          <mxGeometry relative="1" as="geometry" />
        </mxCell>
        <mxCell id="elwqRNV4fK5mfqGkRfo--10" value="check patients details" style="rounded=0;whiteSpace=wrap;html=1;" vertex="1" parent="1">
          <mxGeometry x="90" y="480" width="120" height="60" as="geometry" />
        </mxCell>
        <mxCell id="elwqRNV4fK5mfqGkRfo--11" value="check the patients clinic dates" style="rounded=0;whiteSpace=wrap;html=1;" vertex="1" parent="1">
          <mxGeometry x="365" y="490" width="120" height="60" as="geometry" />
        </mxCell>
        <mxCell id="elwqRNV4fK5mfqGkRfo--13" value="view reports" style="rounded=0;whiteSpace=wrap;html=1;" vertex="1" parent="1">
          <mxGeometry x="640" y="480" width="120" height="60" as="geometry" />
        </mxCell>
        <mxCell id="elwqRNV4fK5mfqGkRfo--36" style="edgeStyle=orthogonalEdgeStyle;rounded=0;orthogonalLoop=1;jettySize=auto;html=1;exitX=0.5;exitY=1;exitDx=0;exitDy=0;entryX=0.5;entryY=0;entryDx=0;entryDy=0;" edge="1" parent="1" source="elwqRNV4fK5mfqGkRfo--26" target="elwqRNV4fK5mfqGkRfo--35">
          <mxGeometry relative="1" as="geometry" />
        </mxCell>
        <mxCell id="elwqRNV4fK5mfqGkRfo--26" value="log out" style="rounded=0;whiteSpace=wrap;html=1;" vertex="1" parent="1">
          <mxGeometry x="365" y="690" width="120" height="60" as="geometry" />
        </mxCell>
        <mxCell id="elwqRNV4fK5mfqGkRfo--35" value="" style="ellipse;html=1;shape=endState;fillColor=#000000;strokeColor=#ff0000;" vertex="1" parent="1">
          <mxGeometry x="410" y="950" width="30" height="30" as="geometry" />
        </mxCell>
        <mxCell id="elwqRNV4fK5mfqGkRfo--37" value="" style="endArrow=classic;html=1;rounded=0;exitX=0.5;exitY=1;exitDx=0;exitDy=0;entryX=0.5;entryY=0;entryDx=0;entryDy=0;" edge="1" parent="1" source="elwqRNV4fK5mfqGkRfo--11" target="elwqRNV4fK5mfqGkRfo--26">
          <mxGeometry width="50" height="50" relative="1" as="geometry">
            <mxPoint x="400" y="690" as="sourcePoint" />
            <mxPoint x="450" y="640" as="targetPoint" />
          </mxGeometry>
        </mxCell>
        <mxCell id="elwqRNV4fK5mfqGkRfo--39" value="" style="endArrow=classic;html=1;rounded=0;exitX=0.424;exitY=1.061;exitDx=0;exitDy=0;exitPerimeter=0;entryX=0;entryY=0.5;entryDx=0;entryDy=0;" edge="1" parent="1" source="elwqRNV4fK5mfqGkRfo--10" target="elwqRNV4fK5mfqGkRfo--26">
          <mxGeometry width="50" height="50" relative="1" as="geometry">
            <mxPoint x="400" y="690" as="sourcePoint" />
            <mxPoint x="450" y="640" as="targetPoint" />
            <Array as="points">
              <mxPoint x="140" y="720" />
            </Array>
          </mxGeometry>
        </mxCell>
        <mxCell id="elwqRNV4fK5mfqGkRfo--40" value="" style="endArrow=classic;html=1;rounded=0;exitX=0.5;exitY=1;exitDx=0;exitDy=0;entryX=1;entryY=0.5;entryDx=0;entryDy=0;" edge="1" parent="1" source="elwqRNV4fK5mfqGkRfo--13" target="elwqRNV4fK5mfqGkRfo--26">
          <mxGeometry width="50" height="50" relative="1" as="geometry">
            <mxPoint x="400" y="690" as="sourcePoint" />
            <mxPoint x="450" y="640" as="targetPoint" />
            <Array as="points">
              <mxPoint x="700" y="720" />
            </Array>
          </mxGeometry>
        </mxCell>
      </root>
    </mxGraphModel>
  </diagram>
</mxfile>
